<svg xmlns="http://www.w3.org/2000/svg" xmlns:xlink="http://www.w3.org/1999/xlink" width="1000" zoomAndPan="magnify" viewBox="0 0 750 225" height="300" preserveAspectRatio="xMidYMid meet" version="1.0"><defs><filter x="0%" y="0%" width="100%" height="100%" id="1e9449a5d2"><feColorMatrix values="0 0 0 0 1 0 0 0 0 1 0 0 0 0 1 0 0 0 1 0" color-interpolation-filters="sRGB"/></filter><g/><mask id="eb15109193"><g filter="url(#1e9449a5d2)"><rect x="-75" width="900" fill="#000000" y="-22.5" height="270" fill-opacity="0.63"/></g></mask><clipPath id="416873eb3c"><path d="M 34 0.398438 L 81.199219 0.398438 L 81.199219 49 L 34 49 Z M 34 0.398438 " clip-rule="nonzero"/></clipPath><clipPath id="154e3c30f1"><path d="M 0.800781 12 L 34 12 L 34 49.359375 L 0.800781 49.359375 Z M 0.800781 12 " clip-rule="nonzero"/></clipPath><clipPath id="fc6e0c09f2"><rect x="0" width="82" y="0" height="50"/></clipPath></defs><g fill="#ffffff" fill-opacity="1"><g transform="translate(190.20798, 124.13027)"><g><path d="M 51.625 -53.5625 C 52.78125 -52.800781 53.507812 -51.78125 53.8125 -50.5 C 54.125 -49.226562 53.972656 -47.898438 53.359375 -46.515625 L 51.765625 -42.90625 C 49.171875 -36.90625 46.566406 -30.929688 43.953125 -24.984375 C 41.335938 -19.035156 38.734375 -13.082031 36.140625 -7.125 C 35.515625 -5.738281 34.890625 -4.632812 34.265625 -3.8125 C 32.972656 -2.082031 31.367188 -1.171875 29.453125 -1.078125 C 27.523438 -1.035156 25.890625 -1.78125 24.546875 -3.3125 C 23.441406 -4.507812 22.410156 -6.09375 21.453125 -8.0625 C 20.734375 -9.601562 20.015625 -11.140625 19.296875 -12.671875 C 18.578125 -14.203125 17.859375 -15.738281 17.140625 -17.28125 C 16.421875 -18.863281 15.695312 -20.421875 14.96875 -21.953125 C 14.25 -23.492188 13.53125 -25.03125 12.8125 -26.5625 C 12.144531 -27.957031 11.472656 -29.328125 10.796875 -30.671875 C 10.128906 -32.015625 9.457031 -33.359375 8.78125 -34.703125 C 8.15625 -35.859375 7.554688 -37.007812 6.984375 -38.15625 C 6.410156 -39.3125 5.832031 -40.488281 5.25 -41.6875 C 4.769531 -42.695312 4.3125 -43.691406 3.875 -44.671875 C 3.445312 -45.660156 3.113281 -46.65625 2.875 -47.65625 C 2.25 -50.25 2.921875 -52.097656 4.890625 -53.203125 C 5.566406 -53.546875 6.289062 -53.71875 7.0625 -53.71875 C 8.5 -53.71875 9.742188 -53.066406 10.796875 -51.765625 C 12.722656 -49.316406 14.617188 -46.878906 16.484375 -44.453125 C 18.359375 -42.035156 20.085938 -39.53125 21.671875 -36.9375 C 22.679688 -35.394531 23.601562 -33.804688 24.4375 -32.171875 C 25.28125 -30.546875 26.109375 -28.847656 26.921875 -27.078125 C 27.304688 -26.253906 27.703125 -25.4375 28.109375 -24.625 C 28.523438 -23.8125 28.945312 -22.992188 29.375 -22.171875 L 30.171875 -20.65625 L 31.6875 -24.40625 C 31.96875 -25.03125 32.226562 -25.628906 32.46875 -26.203125 C 32.707031 -26.785156 32.945312 -27.363281 33.1875 -27.9375 C 33.53125 -28.75 33.867188 -29.5625 34.203125 -30.375 C 34.535156 -31.195312 34.867188 -32.015625 35.203125 -32.828125 C 36.066406 -34.992188 36.96875 -37.164062 37.90625 -39.34375 C 38.84375 -41.53125 39.789062 -43.703125 40.75 -45.859375 C 41.707031 -48.023438 42.976562 -50.140625 44.5625 -52.203125 C 45.476562 -53.347656 46.59375 -54.039062 47.90625 -54.28125 C 49.226562 -54.519531 50.46875 -54.28125 51.625 -53.5625 Z M 51.625 -53.5625 "/></g></g></g><g fill="#ffffff" fill-opacity="1"><g transform="translate(246.151939, 124.13027)"><g><path d="M 55.078125 -11.8125 C 55.128906 -11.46875 55.203125 -11.15625 55.296875 -10.875 C 55.242188 -9.09375 54.84375 -7.601562 54.09375 -6.40625 C 53.351562 -5.207031 52.3125 -4.414062 50.96875 -4.03125 C 49.625 -3.601562 48.328125 -3.648438 47.078125 -4.171875 C 45.835938 -4.703125 44.832031 -5.59375 44.0625 -6.84375 C 43.25 -8.226562 42.550781 -9.957031 41.96875 -12.03125 C 41.78125 -12.789062 41.445312 -13.484375 40.96875 -14.109375 C 40.488281 -14.734375 39.625 -15.070312 38.375 -15.125 C 36.976562 -15.164062 35.582031 -15.210938 34.1875 -15.265625 C 32.800781 -15.316406 31.414062 -15.363281 30.03125 -15.40625 C 28.195312 -15.5 26.34375 -15.582031 24.46875 -15.65625 C 22.601562 -15.726562 20.734375 -15.789062 18.859375 -15.84375 C 18.378906 -15.84375 17.851562 -15.632812 17.28125 -15.21875 C 16.707031 -14.8125 16.273438 -14.394531 15.984375 -13.96875 C 15.597656 -13.289062 15.222656 -12.601562 14.859375 -11.90625 C 14.503906 -11.21875 14.160156 -10.535156 13.828125 -9.859375 C 13.484375 -9.191406 13.128906 -8.5 12.765625 -7.78125 C 12.410156 -7.0625 12.019531 -6.363281 11.59375 -5.6875 C 9.914062 -2.757812 7.875 -1.820312 5.46875 -2.875 C 4.507812 -3.257812 3.726562 -4.023438 3.125 -5.171875 C 2.53125 -6.328125 2.472656 -7.675781 2.953125 -9.21875 C 4.628906 -14.445312 6.789062 -20.375 9.4375 -27 C 11.113281 -31.226562 13.222656 -35.976562 15.765625 -41.25 C 16.484375 -42.738281 17.285156 -44.3125 18.171875 -45.96875 C 19.066406 -47.625 20.039062 -49.242188 21.09375 -50.828125 C 22.195312 -52.410156 23.804688 -53.804688 25.921875 -55.015625 C 27.503906 -55.972656 29.015625 -56.453125 30.453125 -56.453125 C 32.992188 -56.453125 35.109375 -55.035156 36.796875 -52.203125 C 40.109375 -46.535156 43.347656 -40.640625 46.515625 -34.515625 C 49.679688 -28.398438 52.25 -21.957031 54.21875 -15.1875 C 54.40625 -14.5625 54.570312 -13.960938 54.71875 -13.390625 C 54.863281 -12.816406 54.984375 -12.289062 55.078125 -11.8125 Z M 23.109375 -28.015625 L 36.578125 -28.015625 L 28.875 -43.78125 Z M 23.109375 -28.015625 "/></g></g></g><g fill="#ffffff" fill-opacity="1"><g transform="translate(305.839902, 124.13027)"><g><path d="M 41.90625 -14.90625 C 42.71875 -14.46875 43.484375 -13.910156 44.203125 -13.234375 C 44.921875 -12.566406 45.445312 -11.753906 45.78125 -10.796875 C 46.125 -9.835938 46.078125 -8.757812 45.640625 -7.5625 C 45.160156 -5.976562 44.175781 -4.800781 42.6875 -4.03125 C 41.207031 -3.257812 39.648438 -3.09375 38.015625 -3.53125 C 36.816406 -3.863281 35.648438 -4.328125 34.515625 -4.921875 C 33.390625 -5.523438 32.273438 -6.140625 31.171875 -6.765625 C 29.679688 -7.628906 28.191406 -8.515625 26.703125 -9.421875 C 25.222656 -10.335938 23.757812 -11.226562 22.3125 -12.09375 C 21.550781 -12.570312 20.796875 -13.039062 20.046875 -13.5 C 19.304688 -13.957031 18.550781 -14.425781 17.78125 -14.90625 C 17.539062 -15.050781 17.300781 -15.179688 17.0625 -15.296875 C 16.820312 -15.421875 16.554688 -15.554688 16.265625 -15.703125 C 15.890625 -15.835938 15.554688 -16.003906 15.265625 -16.203125 L 14.1875 -16.703125 L 13.828125 -12.53125 C 13.679688 -11.46875 13.554688 -10.429688 13.453125 -9.421875 C 13.359375 -8.421875 13.265625 -7.441406 13.171875 -6.484375 C 12.929688 -4.703125 12.351562 -3.332031 11.4375 -2.375 C 10.53125 -1.414062 9.378906 -0.960938 7.984375 -1.015625 C 6.597656 -1.054688 5.457031 -1.582031 4.5625 -2.59375 C 3.675781 -3.601562 3.164062 -4.972656 3.03125 -6.703125 C 2.0625 -19.515625 3.019531 -33.476562 5.90625 -48.59375 C 6.289062 -50.664062 7.007812 -52.007812 8.0625 -52.625 C 8.59375 -52.914062 9.21875 -53.0625 9.9375 -53.0625 C 10.800781 -53.0625 11.804688 -52.867188 12.953125 -52.484375 C 13.441406 -52.296875 13.960938 -52.257812 14.515625 -52.375 C 15.066406 -52.5 15.460938 -52.609375 15.703125 -52.703125 C 20.878906 -54.722656 26.492188 -55.007812 32.546875 -53.5625 C 38.972656 -52.03125 42.882812 -47.976562 44.28125 -41.40625 C 45.570312 -35.40625 43.601562 -30.363281 38.375 -26.28125 C 37.75 -25.84375 37.097656 -25.410156 36.421875 -24.984375 C 35.753906 -24.554688 35.035156 -24.097656 34.265625 -23.609375 C 33.929688 -23.421875 33.570312 -23.207031 33.1875 -22.96875 C 32.800781 -22.726562 32.421875 -22.488281 32.046875 -22.25 L 30.953125 -21.59375 L 32.046875 -20.953125 C 32.566406 -20.617188 33.09375 -20.28125 33.625 -19.9375 C 34.15625 -19.601562 34.660156 -19.296875 35.140625 -19.015625 C 36.285156 -18.242188 37.410156 -17.519531 38.515625 -16.84375 C 39.617188 -16.175781 40.75 -15.53125 41.90625 -14.90625 Z M 15.703125 -31.46875 C 21.648438 -32.28125 26.804688 -34.195312 31.171875 -37.21875 C 32.660156 -38.28125 33.3125 -39.53125 33.125 -40.96875 C 32.925781 -42.3125 32.0625 -43.25 30.53125 -43.78125 C 25.726562 -45.363281 21.476562 -44.90625 17.78125 -42.40625 C 16.289062 -41.445312 15.425781 -40.304688 15.1875 -38.984375 C 14.945312 -37.671875 14.851562 -36.363281 14.90625 -35.0625 C 14.90625 -34.582031 14.90625 -34.113281 14.90625 -33.65625 C 14.90625 -33.195312 14.878906 -32.753906 14.828125 -32.328125 L 14.6875 -31.3125 Z M 15.703125 -31.46875 "/></g></g></g><g fill="#ffffff" fill-opacity="1"><g transform="translate(356.239863, 124.13027)"><g><path d="M 31.96875 -13.109375 C 32.832031 -13.148438 33.765625 -13.015625 34.765625 -12.703125 C 35.773438 -12.390625 36.570312 -11.613281 37.15625 -10.375 C 38.0625 -8.445312 37.648438 -6.550781 35.921875 -4.6875 C 34.867188 -3.53125 33.625 -2.59375 32.1875 -1.875 C 26.039062 1.101562 19.320312 1.875 12.03125 0.4375 C 7.75 -0.425781 4.960938 -3.210938 3.671875 -7.921875 C 2.859375 -10.898438 2.519531 -13.890625 2.65625 -16.890625 C 2.800781 -19.890625 3.066406 -22.707031 3.453125 -25.34375 C 3.785156 -27.550781 4.144531 -29.757812 4.53125 -31.96875 C 4.914062 -34.175781 5.300781 -36.359375 5.6875 -38.515625 C 5.875 -39.578125 6.050781 -40.625 6.21875 -41.65625 C 6.394531 -42.6875 6.578125 -43.726562 6.765625 -44.78125 L 6.84375 -45.078125 C 6.882812 -45.359375 6.929688 -45.65625 6.984375 -45.96875 C 7.035156 -46.28125 7.007812 -46.601562 6.90625 -46.9375 C 6.382812 -49.582031 7.539062 -51.671875 10.375 -53.203125 C 10.894531 -53.492188 11.429688 -53.757812 11.984375 -54 C 12.535156 -54.238281 13.101562 -54.40625 13.6875 -54.5 L 16.78125 -54.9375 C 18.988281 -55.226562 21.226562 -55.523438 23.5 -55.828125 C 25.78125 -56.140625 28.050781 -56.347656 30.3125 -56.453125 C 30.5 -56.453125 30.691406 -56.453125 30.890625 -56.453125 C 33.140625 -56.453125 34.960938 -55.800781 36.359375 -54.5 C 37.609375 -53.394531 38.253906 -52.03125 38.296875 -50.40625 C 38.347656 -48.570312 37.664062 -47.054688 36.25 -45.859375 C 34.832031 -44.660156 32.972656 -43.988281 30.671875 -43.84375 C 29.179688 -43.75 27.691406 -43.722656 26.203125 -43.765625 C 24.710938 -43.816406 23.226562 -43.890625 21.75 -43.984375 L 19.875 -44.0625 C 18.957031 -44.113281 18.234375 -44.125 17.703125 -44.09375 C 17.179688 -44.070312 16.753906 -43.894531 16.421875 -43.5625 C 16.078125 -43.269531 15.878906 -42.859375 15.828125 -42.328125 C 15.785156 -41.804688 15.765625 -41.085938 15.765625 -40.171875 C 15.765625 -39.265625 15.765625 -38.351562 15.765625 -37.4375 C 15.765625 -36.53125 15.765625 -35.617188 15.765625 -34.703125 L 15.765625 -31.109375 L 16.703125 -31.25 C 17.234375 -31.34375 17.75 -31.4375 18.25 -31.53125 C 18.757812 -31.632812 19.273438 -31.753906 19.796875 -31.890625 C 20.898438 -32.085938 21.992188 -32.28125 23.078125 -32.46875 C 24.160156 -32.664062 25.226562 -32.8125 26.28125 -32.90625 C 28.96875 -33.144531 31.460938 -33 33.765625 -32.46875 C 35.828125 -32.039062 36.929688 -30.769531 37.078125 -28.65625 C 37.171875 -27.457031 36.90625 -26.507812 36.28125 -25.8125 C 35.664062 -25.113281 35.019531 -24.597656 34.34375 -24.265625 C 32.664062 -23.398438 31.035156 -22.894531 29.453125 -22.75 C 27.910156 -22.601562 26.332031 -22.492188 24.71875 -22.421875 C 23.113281 -22.347656 21.5 -22.265625 19.875 -22.171875 C 19.195312 -22.171875 18.507812 -22.144531 17.8125 -22.09375 C 17.125 -22.050781 16.421875 -22.03125 15.703125 -22.03125 L 14.96875 -21.953125 L 14.96875 -21.234375 C 14.96875 -20.898438 14.96875 -20.550781 14.96875 -20.1875 C 14.96875 -19.832031 14.96875 -19.488281 14.96875 -19.15625 C 14.96875 -18.144531 14.96875 -17.125 14.96875 -16.09375 C 14.96875 -15.0625 14.992188 -14.039062 15.046875 -13.03125 C 15.046875 -12.695312 15.15625 -12.394531 15.375 -12.125 C 15.59375 -11.863281 15.769531 -11.660156 15.90625 -11.515625 C 16.101562 -11.367188 16.34375 -11.210938 16.625 -11.046875 C 16.914062 -10.878906 17.226562 -10.796875 17.5625 -10.796875 C 20.25 -10.992188 23.226562 -11.351562 26.5 -11.875 C 26.925781 -11.925781 27.34375 -12.007812 27.75 -12.125 C 28.164062 -12.25 28.5625 -12.359375 28.9375 -12.453125 C 29.46875 -12.597656 29.984375 -12.726562 30.484375 -12.84375 C 30.992188 -12.96875 31.488281 -13.054688 31.96875 -13.109375 Z M 31.96875 -13.109375 "/></g></g></g><g fill="#ffffff" fill-opacity="1"><g transform="translate(398.935846, 124.13027)"><g><path d="M 33.40625 -32.046875 L 33.703125 -31.96875 C 33.648438 -31.25 33.597656 -30.539062 33.546875 -29.84375 C 33.503906 -29.144531 33.457031 -28.4375 33.40625 -27.71875 C 33.3125 -25.894531 33.191406 -24.054688 33.046875 -22.203125 C 32.898438 -20.359375 32.707031 -18.523438 32.46875 -16.703125 C 31.695312 -10.609375 29.035156 -6.097656 24.484375 -3.171875 C 20.210938 -0.429688 15.484375 0.117188 10.296875 -1.515625 C 8.179688 -2.140625 6.117188 -3.457031 4.109375 -5.46875 C 3.140625 -6.425781 2.65625 -7.539062 2.65625 -8.8125 C 2.65625 -10.09375 2.96875 -11.210938 3.59375 -12.171875 C 4.65625 -13.753906 6.191406 -14.546875 8.203125 -14.546875 C 8.828125 -14.546875 9.453125 -14.472656 10.078125 -14.328125 C 10.460938 -14.234375 10.847656 -14.113281 11.234375 -13.96875 C 11.617188 -13.820312 12.003906 -13.675781 12.390625 -13.53125 C 12.671875 -13.382812 12.941406 -13.265625 13.203125 -13.171875 C 13.472656 -13.078125 13.753906 -12.984375 14.046875 -12.890625 C 16.109375 -12.210938 17.785156 -12.1875 19.078125 -12.8125 C 20.273438 -13.4375 21.140625 -14.613281 21.671875 -16.34375 C 22.867188 -20.039062 23.421875 -23.378906 23.328125 -26.359375 C 23.273438 -28.753906 23.140625 -31.160156 22.921875 -33.578125 C 22.710938 -36.003906 22.507812 -38.421875 22.3125 -40.828125 C 22.21875 -41.785156 22.125 -42.734375 22.03125 -43.671875 C 21.9375 -44.609375 21.84375 -45.554688 21.75 -46.515625 C 21.75 -46.753906 21.722656 -47.085938 21.671875 -47.515625 C 21.617188 -47.710938 21.582031 -47.894531 21.5625 -48.0625 C 21.539062 -48.226562 21.53125 -48.40625 21.53125 -48.59375 C 21.4375 -50.175781 21.785156 -51.519531 22.578125 -52.625 C 23.367188 -53.726562 24.4375 -54.425781 25.78125 -54.71875 C 27.3125 -55.007812 28.675781 -54.722656 29.875 -53.859375 C 31.03125 -53.085938 31.726562 -51.984375 31.96875 -50.546875 C 32.300781 -48.867188 32.539062 -47.148438 32.6875 -45.390625 C 32.832031 -43.640625 32.976562 -41.898438 33.125 -40.171875 C 33.164062 -39.546875 33.210938 -38.921875 33.265625 -38.296875 C 33.316406 -37.679688 33.363281 -37.082031 33.40625 -36.5 C 33.40625 -36.070312 33.40625 -35.648438 33.40625 -35.234375 C 33.40625 -34.828125 33.40625 -34.410156 33.40625 -33.984375 C 33.40625 -33.742188 33.40625 -33.523438 33.40625 -33.328125 C 33.40625 -33.140625 33.40625 -32.953125 33.40625 -32.765625 Z M 33.40625 -32.046875 "/></g></g></g><g fill="#ffffff" fill-opacity="1"><g transform="translate(437.023796, 124.13027)"><g><path d="M 62.0625 -10.515625 C 62.113281 -10.222656 62.1875 -9.882812 62.28125 -9.5 C 62.226562 -7.53125 61.78125 -5.863281 60.9375 -4.5 C 60.101562 -3.132812 58.921875 -2.210938 57.390625 -1.734375 C 55.847656 -1.253906 54.367188 -1.3125 52.953125 -1.90625 C 51.535156 -2.507812 50.394531 -3.53125 49.53125 -4.96875 C 48.625 -6.5 47.859375 -8.441406 47.234375 -10.796875 C 46.992188 -11.710938 46.597656 -12.515625 46.046875 -13.203125 C 45.492188 -13.898438 44.519531 -14.273438 43.125 -14.328125 C 41.539062 -14.378906 39.96875 -14.425781 38.40625 -14.46875 C 36.851562 -14.519531 35.285156 -14.59375 33.703125 -14.6875 C 31.628906 -14.738281 29.523438 -14.8125 27.390625 -14.90625 C 25.253906 -15 23.132812 -15.070312 21.03125 -15.125 C 20.445312 -15.125 19.832031 -14.894531 19.1875 -14.4375 C 18.539062 -13.976562 18.070312 -13.484375 17.78125 -12.953125 C 17.351562 -12.234375 16.929688 -11.476562 16.515625 -10.6875 C 16.109375 -9.894531 15.71875 -9.117188 15.34375 -8.359375 C 14.957031 -7.585938 14.546875 -6.789062 14.109375 -5.96875 C 13.679688 -5.15625 13.25 -4.363281 12.8125 -3.59375 C 11.90625 -2.007812 10.835938 -0.941406 9.609375 -0.390625 C 8.390625 0.160156 7.128906 0.144531 5.828125 -0.4375 C 4.722656 -0.863281 3.832031 -1.738281 3.15625 -3.0625 C 2.488281 -4.382812 2.445312 -5.90625 3.03125 -7.625 C 4.945312 -13.582031 7.367188 -20.28125 10.296875 -27.71875 C 12.210938 -32.519531 14.613281 -37.921875 17.5 -43.921875 C 18.3125 -45.597656 19.222656 -47.382812 20.234375 -49.28125 C 21.242188 -51.175781 22.347656 -53.015625 23.546875 -54.796875 C 24.796875 -56.523438 26.617188 -58.109375 29.015625 -59.546875 C 30.835938 -60.597656 32.566406 -61.125 34.203125 -61.125 C 37.078125 -61.125 39.453125 -59.539062 41.328125 -56.375 C 45.066406 -49.945312 48.738281 -43.25 52.34375 -36.28125 C 55.945312 -29.320312 58.851562 -22.03125 61.0625 -14.40625 C 61.300781 -13.726562 61.488281 -13.050781 61.625 -12.375 C 61.769531 -11.707031 61.914062 -11.085938 62.0625 -10.515625 Z M 25.84375 -28.875 L 41.109375 -28.875 L 32.40625 -46.734375 Z M 24.265625 -64.375 C 23.398438 -64.175781 22.65625 -64.253906 22.03125 -64.609375 C 21.40625 -64.972656 20.878906 -65.515625 20.453125 -66.234375 C 19.628906 -67.535156 19.335938 -68.878906 19.578125 -70.265625 C 19.816406 -71.660156 20.460938 -72.882812 21.515625 -73.9375 C 22.578125 -75 23.925781 -75.695312 25.5625 -76.03125 C 27.914062 -76.507812 30.144531 -76.195312 32.25 -75.09375 C 33.070312 -74.664062 33.878906 -74.222656 34.671875 -73.765625 C 35.460938 -73.304688 36.242188 -72.863281 37.015625 -72.4375 C 39.359375 -71.132812 41.320312 -71.539062 42.90625 -73.65625 C 43.34375 -74.226562 43.800781 -74.679688 44.28125 -75.015625 C 44.757812 -75.359375 45.359375 -75.410156 46.078125 -75.171875 C 46.847656 -74.929688 47.398438 -74.5 47.734375 -73.875 C 48.066406 -73.25 48.1875 -72.578125 48.09375 -71.859375 C 48 -71.179688 47.832031 -70.484375 47.59375 -69.765625 C 47.351562 -69.046875 47.039062 -68.421875 46.65625 -67.890625 C 45.789062 -66.785156 44.6875 -65.945312 43.34375 -65.375 C 42 -64.800781 40.59375 -64.5 39.125 -64.46875 C 37.664062 -64.445312 36.3125 -64.722656 35.0625 -65.296875 C 34.050781 -65.785156 33.066406 -66.316406 32.109375 -66.890625 C 31.148438 -67.460938 30.164062 -68.015625 29.15625 -68.546875 C 28.875 -68.691406 28.539062 -68.8125 28.15625 -68.90625 C 27.769531 -69 27.359375 -69.117188 26.921875 -69.265625 C 26.878906 -68.878906 26.84375 -68.566406 26.8125 -68.328125 C 26.789062 -68.085938 26.78125 -67.875 26.78125 -67.6875 C 26.738281 -65.8125 25.898438 -64.707031 24.265625 -64.375 Z M 24.265625 -64.375 "/></g></g></g><g fill="#ffffff" fill-opacity="1"><g transform="translate(503.695768, 124.13027)"><g><path d="M 30.671875 -53.640625 C 33.890625 -52.867188 36.84375 -51.90625 39.53125 -50.75 C 42.21875 -49.601562 44.546875 -48.101562 46.515625 -46.25 C 48.484375 -44.40625 50.050781 -42.078125 51.21875 -39.265625 C 52.394531 -36.460938 53.109375 -33.046875 53.359375 -29.015625 C 52.773438 -22.585938 50.925781 -17.476562 47.8125 -13.6875 C 47.1875 -13.007812 46.582031 -12.320312 46 -11.625 C 45.425781 -10.925781 44.828125 -10.242188 44.203125 -9.578125 L 42.84375 -7.921875 C 38.226562 -2.546875 32.203125 -0.3125 24.765625 -1.21875 C 24.234375 -1.269531 23.703125 -1.34375 23.171875 -1.4375 C 22.648438 -1.53125 22.125 -1.628906 21.59375 -1.734375 L 21.3125 -1.796875 C 14.394531 -3.234375 9.304688 -6.832031 6.046875 -12.59375 C 4.222656 -15.769531 3.128906 -19.320312 2.765625 -23.25 C 2.410156 -27.1875 2.832031 -30.882812 4.03125 -34.34375 C 7.96875 -45.625 15.429688 -51.984375 26.421875 -53.421875 L 27.21875 -53.5625 C 27.601562 -53.613281 27.984375 -53.660156 28.359375 -53.703125 C 28.742188 -53.753906 29.128906 -53.78125 29.515625 -53.78125 C 29.953125 -53.78125 30.335938 -53.734375 30.671875 -53.640625 Z M 40.3125 -27.859375 L 40.390625 -28.078125 L 40.390625 -28.296875 C 40.054688 -30.890625 39.375 -32.894531 38.34375 -34.3125 C 37.3125 -35.726562 35.664062 -36.890625 33.40625 -37.796875 C 31.34375 -38.660156 29.546875 -39.476562 28.015625 -40.25 C 25.941406 -41.300781 24.160156 -41.644531 22.671875 -41.28125 C 21.191406 -40.925781 19.800781 -39.8125 18.5 -37.9375 C 14.664062 -32.132812 13.734375 -26.5 15.703125 -21.03125 C 16.367188 -19.195312 17.429688 -17.65625 18.890625 -16.40625 C 20.359375 -15.164062 22.050781 -14.351562 23.96875 -13.96875 C 24.644531 -13.820312 25.34375 -13.75 26.0625 -13.75 C 29.132812 -13.75 31.679688 -14.898438 33.703125 -17.203125 C 33.890625 -17.398438 34.066406 -17.582031 34.234375 -17.75 C 34.398438 -17.914062 34.554688 -18.070312 34.703125 -18.21875 C 35.140625 -18.695312 35.5625 -19.160156 35.96875 -19.609375 C 36.375 -20.066406 36.742188 -20.5625 37.078125 -21.09375 C 37.515625 -21.863281 37.921875 -22.644531 38.296875 -23.4375 C 38.679688 -24.226562 39.046875 -25.03125 39.390625 -25.84375 C 39.523438 -26.1875 39.664062 -26.523438 39.8125 -26.859375 C 39.957031 -27.191406 40.125 -27.523438 40.3125 -27.859375 Z M 40.3125 -27.859375 "/></g></g></g><g fill="#ffffff" fill-opacity="1"><g transform="translate(143.766572, 196.130267)"><g><path d="M 45.71875 -20.453125 C 46.101562 -15.890625 44.785156 -11.832031 41.765625 -8.28125 C 40.515625 -6.738281 39.289062 -5.660156 38.09375 -5.046875 C 28.539062 0.191406 19.441406 1.347656 10.796875 -1.578125 C 9.023438 -2.203125 7.226562 -3.285156 5.40625 -4.828125 C 3.820312 -6.117188 3.335938 -7.941406 3.953125 -10.296875 C 4.335938 -11.828125 4.554688 -13.4375 4.609375 -15.125 C 4.660156 -18.09375 4.707031 -21.050781 4.75 -24 C 4.800781 -26.957031 4.847656 -29.898438 4.890625 -32.828125 C 4.941406 -35.179688 4.976562 -37.546875 5 -39.921875 C 5.03125 -42.296875 5.066406 -44.660156 5.109375 -47.015625 L 5.109375 -47.296875 C 5.160156 -47.828125 5.125 -48.390625 5 -48.984375 C 4.882812 -49.585938 4.394531 -50.15625 3.53125 -50.6875 C 3.050781 -50.976562 2.757812 -51.382812 2.65625 -51.90625 C 2.613281 -52.53125 2.832031 -53.082031 3.3125 -53.5625 L 3.953125 -54.21875 C 4.773438 -54.988281 5.628906 -55.769531 6.515625 -56.5625 C 7.398438 -57.351562 8.320312 -57.867188 9.28125 -58.109375 C 14.851562 -59.546875 20.253906 -60.359375 25.484375 -60.546875 C 25.773438 -60.597656 26.085938 -60.625 26.421875 -60.625 C 32.804688 -60.625 37.34375 -57.789062 40.03125 -52.125 C 42.476562 -47.039062 41.734375 -42.429688 37.796875 -38.296875 C 37.609375 -38.109375 37.394531 -37.914062 37.15625 -37.71875 C 36.914062 -37.53125 36.648438 -37.34375 36.359375 -37.15625 C 36.210938 -37.0625 36.066406 -36.953125 35.921875 -36.828125 C 35.785156 -36.703125 35.644531 -36.59375 35.5 -36.5 L 34.625 -35.859375 L 35.5 -35.28125 C 35.78125 -35.039062 36.050781 -34.820312 36.3125 -34.625 C 36.582031 -34.4375 36.835938 -34.25 37.078125 -34.0625 C 37.554688 -33.675781 38 -33.328125 38.40625 -33.015625 C 38.820312 -32.703125 39.21875 -32.378906 39.59375 -32.046875 C 43.25 -28.972656 45.289062 -25.109375 45.71875 -20.453125 Z M 15.34375 -39.953125 L 15.34375 -39.03125 L 16.265625 -39.234375 C 16.742188 -39.335938 17.1875 -39.445312 17.59375 -39.5625 C 18.007812 -39.6875 18.429688 -39.796875 18.859375 -39.890625 C 19.816406 -40.078125 20.753906 -40.289062 21.671875 -40.53125 C 22.585938 -40.769531 23.476562 -41.0625 24.34375 -41.40625 C 25.726562 -41.925781 26.734375 -42.453125 27.359375 -42.984375 C 27.984375 -43.515625 28.460938 -43.972656 28.796875 -44.359375 L 29.15625 -44.859375 C 29.445312 -45.378906 29.722656 -45.972656 29.984375 -46.640625 C 30.253906 -47.316406 30.269531 -48.019531 30.03125 -48.75 C 29.78125 -49.46875 29.226562 -50.039062 28.375 -50.46875 C 27.457031 -50.90625 26.132812 -51.242188 24.40625 -51.484375 C 23.59375 -51.523438 22.800781 -51.535156 22.03125 -51.515625 C 21.257812 -51.492188 20.347656 -51.363281 19.296875 -51.125 C 18.242188 -50.882812 16.898438 -50.472656 15.265625 -49.890625 L 14.6875 -49.6875 L 14.6875 -49.109375 C 14.738281 -48.046875 14.796875 -47.164062 14.859375 -46.46875 C 14.929688 -45.78125 14.992188 -45.125 15.046875 -44.5 C 15.097656 -43.875 15.144531 -43.222656 15.1875 -42.546875 C 15.238281 -41.878906 15.289062 -41.015625 15.34375 -39.953125 Z M 34.703125 -18.859375 C 35.035156 -21.210938 34.148438 -23.375 32.046875 -25.34375 C 30.703125 -26.632812 29.269531 -27.519531 27.75 -28 C 26.238281 -28.488281 24.710938 -28.734375 23.171875 -28.734375 C 21.640625 -28.734375 20.109375 -28.660156 18.578125 -28.515625 L 17.140625 -28.4375 C 16.660156 -28.394531 16.273438 -28.082031 15.984375 -27.5 C 15.691406 -26.925781 15.523438 -26.472656 15.484375 -26.140625 C 15.484375 -25.421875 15.484375 -24.6875 15.484375 -23.9375 C 15.484375 -23.195312 15.484375 -22.46875 15.484375 -21.75 L 15.484375 -20.15625 L 15.546875 -19.375 C 15.546875 -19.175781 15.546875 -19.003906 15.546875 -18.859375 C 15.546875 -18.710938 15.546875 -18.570312 15.546875 -18.4375 C 15.546875 -17.757812 15.546875 -17.097656 15.546875 -16.453125 C 15.546875 -15.804688 15.523438 -15.144531 15.484375 -14.46875 C 15.390625 -12.59375 16.300781 -11.5625 18.21875 -11.375 C 18.84375 -11.320312 19.441406 -11.296875 20.015625 -11.296875 C 23.617188 -11.296875 27.21875 -12.1875 30.8125 -13.96875 C 33.070312 -15.070312 34.367188 -16.703125 34.703125 -18.859375 Z M 34.703125 -18.859375 "/></g></g></g><g fill="#ffffff" fill-opacity="1"><g transform="translate(193.950537, 196.130267)"><g><path d="M 30.671875 -53.640625 C 33.890625 -52.867188 36.84375 -51.90625 39.53125 -50.75 C 42.21875 -49.601562 44.546875 -48.101562 46.515625 -46.25 C 48.484375 -44.40625 50.050781 -42.078125 51.21875 -39.265625 C 52.394531 -36.460938 53.109375 -33.046875 53.359375 -29.015625 C 52.773438 -22.585938 50.925781 -17.476562 47.8125 -13.6875 C 47.1875 -13.007812 46.582031 -12.320312 46 -11.625 C 45.425781 -10.925781 44.828125 -10.242188 44.203125 -9.578125 L 42.84375 -7.921875 C 38.226562 -2.546875 32.203125 -0.3125 24.765625 -1.21875 C 24.234375 -1.269531 23.703125 -1.34375 23.171875 -1.4375 C 22.648438 -1.53125 22.125 -1.628906 21.59375 -1.734375 L 21.3125 -1.796875 C 14.394531 -3.234375 9.304688 -6.832031 6.046875 -12.59375 C 4.222656 -15.769531 3.128906 -19.320312 2.765625 -23.25 C 2.410156 -27.1875 2.832031 -30.882812 4.03125 -34.34375 C 7.96875 -45.625 15.429688 -51.984375 26.421875 -53.421875 L 27.21875 -53.5625 C 27.601562 -53.613281 27.984375 -53.660156 28.359375 -53.703125 C 28.742188 -53.753906 29.128906 -53.78125 29.515625 -53.78125 C 29.953125 -53.78125 30.335938 -53.734375 30.671875 -53.640625 Z M 40.3125 -27.859375 L 40.390625 -28.078125 L 40.390625 -28.296875 C 40.054688 -30.890625 39.375 -32.894531 38.34375 -34.3125 C 37.3125 -35.726562 35.664062 -36.890625 33.40625 -37.796875 C 31.34375 -38.660156 29.546875 -39.476562 28.015625 -40.25 C 25.941406 -41.300781 24.160156 -41.644531 22.671875 -41.28125 C 21.191406 -40.925781 19.800781 -39.8125 18.5 -37.9375 C 14.664062 -32.132812 13.734375 -26.5 15.703125 -21.03125 C 16.367188 -19.195312 17.429688 -17.65625 18.890625 -16.40625 C 20.359375 -15.164062 22.050781 -14.351562 23.96875 -13.96875 C 24.644531 -13.820312 25.34375 -13.75 26.0625 -13.75 C 29.132812 -13.75 31.679688 -14.898438 33.703125 -17.203125 C 33.890625 -17.398438 34.066406 -17.582031 34.234375 -17.75 C 34.398438 -17.914062 34.554688 -18.070312 34.703125 -18.21875 C 35.140625 -18.695312 35.5625 -19.160156 35.96875 -19.609375 C 36.375 -20.066406 36.742188 -20.5625 37.078125 -21.09375 C 37.515625 -21.863281 37.921875 -22.644531 38.296875 -23.4375 C 38.679688 -24.226562 39.046875 -25.03125 39.390625 -25.84375 C 39.523438 -26.1875 39.664062 -26.523438 39.8125 -26.859375 C 39.957031 -27.191406 40.125 -27.523438 40.3125 -27.859375 Z M 40.3125 -27.859375 "/></g></g></g><g fill="#ffffff" fill-opacity="1"><g transform="translate(251.766499, 196.130267)"><g><path d="M 66.8125 -15.40625 C 66.957031 -12.863281 66.71875 -10.25 66.09375 -7.5625 C 65.707031 -6.125 65.046875 -4.992188 64.109375 -4.171875 C 63.179688 -3.359375 62.066406 -2.925781 60.765625 -2.875 C 59.617188 -2.832031 58.492188 -3.171875 57.390625 -3.890625 C 56.285156 -4.609375 55.585938 -5.734375 55.296875 -7.265625 C 54.335938 -11.921875 53.664062 -17.347656 53.28125 -23.546875 C 53.132812 -25.222656 53.070312 -26.898438 53.09375 -28.578125 C 53.125 -30.265625 53.140625 -31.921875 53.140625 -33.546875 C 53.140625 -34.316406 53.148438 -35.097656 53.171875 -35.890625 C 53.191406 -36.679688 53.203125 -37.460938 53.203125 -38.234375 C 53.203125 -38.660156 53.164062 -39.113281 53.09375 -39.59375 C 53.019531 -40.070312 52.863281 -40.578125 52.625 -41.109375 L 51.90625 -42.625 L 50.90625 -40.53125 C 50.8125 -40.289062 50.710938 -40.050781 50.609375 -39.8125 C 50.515625 -39.570312 50.421875 -39.332031 50.328125 -39.09375 C 49.992188 -38.132812 49.65625 -37.1875 49.3125 -36.25 C 48.976562 -35.3125 48.644531 -34.363281 48.3125 -33.40625 C 47.738281 -31.769531 47.175781 -30.132812 46.625 -28.5 C 46.070312 -26.875 45.484375 -25.269531 44.859375 -23.6875 L 44.78125 -23.40625 C 44.445312 -22.488281 44.097656 -21.5625 43.734375 -20.625 C 43.378906 -19.6875 42.960938 -18.785156 42.484375 -17.921875 C 41.085938 -15.617188 39.265625 -14.421875 37.015625 -14.328125 C 34.804688 -14.234375 32.929688 -15.242188 31.390625 -17.359375 C 30.523438 -18.503906 29.769531 -19.722656 29.125 -21.015625 C 28.476562 -22.316406 27.863281 -23.640625 27.28125 -24.984375 C 26.613281 -26.421875 25.957031 -27.882812 25.3125 -29.375 C 24.664062 -30.863281 24.03125 -32.351562 23.40625 -33.84375 C 23.113281 -34.5625 22.796875 -35.289062 22.453125 -36.03125 C 22.117188 -36.78125 21.8125 -37.535156 21.53125 -38.296875 C 21.382812 -38.640625 21.175781 -39 20.90625 -39.375 C 20.644531 -39.757812 20.300781 -40.171875 19.875 -40.609375 L 18.796875 -41.546875 L 18.359375 -38.734375 C 18.304688 -38.253906 18.242188 -37.757812 18.171875 -37.25 C 18.109375 -36.75 18.050781 -36.257812 18 -35.78125 C 17.8125 -33.957031 17.617188 -32.144531 17.421875 -30.34375 C 17.234375 -28.539062 17.039062 -26.726562 16.84375 -24.90625 C 16.601562 -22.363281 16.351562 -19.832031 16.09375 -17.3125 C 15.832031 -14.789062 15.554688 -12.257812 15.265625 -9.71875 C 15.210938 -8.851562 15.125 -8 15 -7.15625 C 14.882812 -6.320312 14.707031 -5.519531 14.46875 -4.75 C 14.082031 -3.257812 13.335938 -2.082031 12.234375 -1.21875 C 11.128906 -0.351562 9.882812 0.0507812 8.5 0 C 7.0625 -0.0507812 5.820312 -0.566406 4.78125 -1.546875 C 3.75 -2.535156 3.140625 -3.75 2.953125 -5.1875 C 2.566406 -8.15625 2.566406 -10.863281 2.953125 -13.3125 C 4.679688 -23.925781 6.625 -34.726562 8.78125 -45.71875 C 9.257812 -48.257812 10.148438 -50.734375 11.453125 -53.140625 C 12.648438 -55.242188 14.234375 -56.46875 16.203125 -56.8125 C 16.484375 -56.851562 16.769531 -56.875 17.0625 -56.875 C 18.644531 -56.875 20.132812 -56.253906 21.53125 -55.015625 C 23.738281 -52.992188 26.066406 -50.113281 28.515625 -46.375 C 29.273438 -45.21875 29.992188 -44.003906 30.671875 -42.734375 C 31.347656 -41.460938 32.046875 -40.175781 32.765625 -38.875 C 33.046875 -38.25 33.34375 -37.632812 33.65625 -37.03125 C 33.96875 -36.4375 34.289062 -35.828125 34.625 -35.203125 L 35.421875 -33.765625 L 36.078125 -35.28125 C 36.316406 -35.851562 36.539062 -36.425781 36.75 -37 C 36.96875 -37.582031 37.195312 -38.160156 37.4375 -38.734375 C 37.914062 -40.035156 38.394531 -41.285156 38.875 -42.484375 C 39.351562 -43.679688 39.859375 -44.878906 40.390625 -46.078125 C 41.585938 -48.722656 43.03125 -51.4375 44.71875 -54.21875 C 45.53125 -55.601562 46.582031 -56.898438 47.875 -58.109375 C 50.132812 -60.171875 52.460938 -60.960938 54.859375 -60.484375 C 57.265625 -60.003906 59.09375 -58.347656 60.34375 -55.515625 C 62.539062 -50.660156 64.003906 -44.660156 64.734375 -37.515625 L 65.15625 -33.125 C 65.488281 -30.238281 65.800781 -27.296875 66.09375 -24.296875 C 66.382812 -21.296875 66.625 -18.332031 66.8125 -15.40625 Z M 66.8125 -15.40625 "/></g></g></g><g fill="#ffffff" fill-opacity="1"><g transform="translate(323.118452, 196.130267)"><g/></g></g><g fill="#ffffff" fill-opacity="1"><g transform="translate(345.51043, 196.130267)"><g><path d="M 45.078125 -41.6875 C 45.742188 -37.707031 45.378906 -34 43.984375 -30.5625 C 42.597656 -27.132812 40.367188 -24.242188 37.296875 -21.890625 C 34.222656 -19.535156 30.523438 -18 26.203125 -17.28125 C 25.242188 -17.082031 24.1875 -16.992188 23.03125 -17.015625 C 21.882812 -17.046875 20.734375 -17.085938 19.578125 -17.140625 C 19.003906 -17.179688 18.414062 -17.210938 17.8125 -17.234375 C 17.21875 -17.265625 16.632812 -17.28125 16.0625 -17.28125 L 15.265625 -17.28125 L 15.34375 -15.40625 C 15.382812 -14.539062 15.425781 -13.507812 15.46875 -12.3125 C 15.519531 -11.113281 15.546875 -10.128906 15.546875 -9.359375 L 15.546875 -8.71875 C 15.503906 -7.894531 15.445312 -7.078125 15.375 -6.265625 C 15.300781 -5.453125 15.117188 -4.707031 14.828125 -4.03125 C 14.253906 -2.59375 13.519531 -1.597656 12.625 -1.046875 C 11.738281 -0.492188 10.9375 -0.171875 10.21875 -0.078125 C 9.257812 0.0664062 8.375 0 7.5625 -0.28125 C 6.75 -0.570312 6.148438 -0.9375 5.765625 -1.375 L 5.546875 -1.515625 C 4.773438 -1.992188 4.316406 -2.675781 4.171875 -3.5625 C 4.023438 -4.445312 3.976562 -5.46875 4.03125 -6.625 C 4.082031 -7.34375 4.128906 -8.0625 4.171875 -8.78125 C 4.222656 -9.5 4.269531 -10.242188 4.3125 -11.015625 C 4.414062 -12.410156 4.503906 -13.835938 4.578125 -15.296875 C 4.648438 -16.765625 4.6875 -18.242188 4.6875 -19.734375 C 4.6875 -22.273438 4.578125 -24.835938 4.359375 -27.421875 C 4.140625 -30.015625 3.910156 -32.585938 3.671875 -35.140625 C 3.429688 -37.484375 3.210938 -39.851562 3.015625 -42.25 C 2.828125 -44.65625 2.707031 -47.0625 2.65625 -49.46875 C 2.65625 -50.09375 2.664062 -50.703125 2.6875 -51.296875 C 2.71875 -51.898438 2.78125 -52.488281 2.875 -53.0625 C 3.257812 -54.976562 4.269531 -56.203125 5.90625 -56.734375 C 6.332031 -56.828125 6.765625 -56.875 7.203125 -56.875 C 8.398438 -56.875 9.503906 -56.394531 10.515625 -55.4375 C 10.660156 -55.34375 10.828125 -55.128906 11.015625 -54.796875 C 11.160156 -54.597656 11.28125 -54.425781 11.375 -54.28125 L 11.875 -53.640625 L 12.453125 -54.078125 C 15.816406 -56.421875 19.65625 -57.785156 23.96875 -58.171875 C 27.71875 -58.460938 31.066406 -57.984375 34.015625 -56.734375 C 36.972656 -55.484375 39.410156 -53.585938 41.328125 -51.046875 C 43.242188 -48.503906 44.492188 -45.382812 45.078125 -41.6875 Z M 29.15625 -32.765625 C 32.132812 -35.597656 33 -38.738281 31.75 -42.1875 C 31.175781 -43.726562 30.238281 -44.785156 28.9375 -45.359375 C 27.882812 -45.796875 26.640625 -45.914062 25.203125 -45.71875 C 23.765625 -45.53125 22.40625 -45.085938 21.125 -44.390625 C 19.851562 -43.691406 18.90625 -42.816406 18.28125 -41.765625 C 16.175781 -38.347656 15.125 -34.242188 15.125 -29.453125 L 15.125 -28.734375 L 15.84375 -28.65625 C 16.414062 -28.65625 16.941406 -28.65625 17.421875 -28.65625 C 22.410156 -28.65625 26.320312 -30.023438 29.15625 -32.765625 Z M 29.15625 -32.765625 "/></g></g></g><g fill="#ffffff" fill-opacity="1"><g transform="translate(395.334387, 196.130267)"><g><path d="M 41.90625 -14.90625 C 42.71875 -14.46875 43.484375 -13.910156 44.203125 -13.234375 C 44.921875 -12.566406 45.445312 -11.753906 45.78125 -10.796875 C 46.125 -9.835938 46.078125 -8.757812 45.640625 -7.5625 C 45.160156 -5.976562 44.175781 -4.800781 42.6875 -4.03125 C 41.207031 -3.257812 39.648438 -3.09375 38.015625 -3.53125 C 36.816406 -3.863281 35.648438 -4.328125 34.515625 -4.921875 C 33.390625 -5.523438 32.273438 -6.140625 31.171875 -6.765625 C 29.679688 -7.628906 28.191406 -8.515625 26.703125 -9.421875 C 25.222656 -10.335938 23.757812 -11.226562 22.3125 -12.09375 C 21.550781 -12.570312 20.796875 -13.039062 20.046875 -13.5 C 19.304688 -13.957031 18.550781 -14.425781 17.78125 -14.90625 C 17.539062 -15.050781 17.300781 -15.179688 17.0625 -15.296875 C 16.820312 -15.421875 16.554688 -15.554688 16.265625 -15.703125 C 15.890625 -15.835938 15.554688 -16.003906 15.265625 -16.203125 L 14.1875 -16.703125 L 13.828125 -12.53125 C 13.679688 -11.46875 13.554688 -10.429688 13.453125 -9.421875 C 13.359375 -8.421875 13.265625 -7.441406 13.171875 -6.484375 C 12.929688 -4.703125 12.351562 -3.332031 11.4375 -2.375 C 10.53125 -1.414062 9.378906 -0.960938 7.984375 -1.015625 C 6.597656 -1.054688 5.457031 -1.582031 4.5625 -2.59375 C 3.675781 -3.601562 3.164062 -4.972656 3.03125 -6.703125 C 2.0625 -19.515625 3.019531 -33.476562 5.90625 -48.59375 C 6.289062 -50.664062 7.007812 -52.007812 8.0625 -52.625 C 8.59375 -52.914062 9.21875 -53.0625 9.9375 -53.0625 C 10.800781 -53.0625 11.804688 -52.867188 12.953125 -52.484375 C 13.441406 -52.296875 13.960938 -52.257812 14.515625 -52.375 C 15.066406 -52.5 15.460938 -52.609375 15.703125 -52.703125 C 20.878906 -54.722656 26.492188 -55.007812 32.546875 -53.5625 C 38.972656 -52.03125 42.882812 -47.976562 44.28125 -41.40625 C 45.570312 -35.40625 43.601562 -30.363281 38.375 -26.28125 C 37.75 -25.84375 37.097656 -25.410156 36.421875 -24.984375 C 35.753906 -24.554688 35.035156 -24.097656 34.265625 -23.609375 C 33.929688 -23.421875 33.570312 -23.207031 33.1875 -22.96875 C 32.800781 -22.726562 32.421875 -22.488281 32.046875 -22.25 L 30.953125 -21.59375 L 32.046875 -20.953125 C 32.566406 -20.617188 33.09375 -20.28125 33.625 -19.9375 C 34.15625 -19.601562 34.660156 -19.296875 35.140625 -19.015625 C 36.285156 -18.242188 37.410156 -17.519531 38.515625 -16.84375 C 39.617188 -16.175781 40.75 -15.53125 41.90625 -14.90625 Z M 15.703125 -31.46875 C 21.648438 -32.28125 26.804688 -34.195312 31.171875 -37.21875 C 32.660156 -38.28125 33.3125 -39.53125 33.125 -40.96875 C 32.925781 -42.3125 32.0625 -43.25 30.53125 -43.78125 C 25.726562 -45.363281 21.476562 -44.90625 17.78125 -42.40625 C 16.289062 -41.445312 15.425781 -40.304688 15.1875 -38.984375 C 14.945312 -37.671875 14.851562 -36.363281 14.90625 -35.0625 C 14.90625 -34.582031 14.90625 -34.113281 14.90625 -33.65625 C 14.90625 -33.195312 14.878906 -32.753906 14.828125 -32.328125 L 14.6875 -31.3125 Z M 15.703125 -31.46875 "/></g></g></g><g fill="#ffffff" fill-opacity="1"><g transform="translate(445.734348, 196.130267)"><g><path d="M 31.96875 -13.109375 C 32.832031 -13.148438 33.765625 -13.015625 34.765625 -12.703125 C 35.773438 -12.390625 36.570312 -11.613281 37.15625 -10.375 C 38.0625 -8.445312 37.648438 -6.550781 35.921875 -4.6875 C 34.867188 -3.53125 33.625 -2.59375 32.1875 -1.875 C 26.039062 1.101562 19.320312 1.875 12.03125 0.4375 C 7.75 -0.425781 4.960938 -3.210938 3.671875 -7.921875 C 2.859375 -10.898438 2.519531 -13.890625 2.65625 -16.890625 C 2.800781 -19.890625 3.066406 -22.707031 3.453125 -25.34375 C 3.785156 -27.550781 4.144531 -29.757812 4.53125 -31.96875 C 4.914062 -34.175781 5.300781 -36.359375 5.6875 -38.515625 C 5.875 -39.578125 6.050781 -40.625 6.21875 -41.65625 C 6.394531 -42.6875 6.578125 -43.726562 6.765625 -44.78125 L 6.84375 -45.078125 C 6.882812 -45.359375 6.929688 -45.65625 6.984375 -45.96875 C 7.035156 -46.28125 7.007812 -46.601562 6.90625 -46.9375 C 6.382812 -49.582031 7.539062 -51.671875 10.375 -53.203125 C 10.894531 -53.492188 11.429688 -53.757812 11.984375 -54 C 12.535156 -54.238281 13.101562 -54.40625 13.6875 -54.5 L 16.78125 -54.9375 C 18.988281 -55.226562 21.226562 -55.523438 23.5 -55.828125 C 25.78125 -56.140625 28.050781 -56.347656 30.3125 -56.453125 C 30.5 -56.453125 30.691406 -56.453125 30.890625 -56.453125 C 33.140625 -56.453125 34.960938 -55.800781 36.359375 -54.5 C 37.609375 -53.394531 38.253906 -52.03125 38.296875 -50.40625 C 38.347656 -48.570312 37.664062 -47.054688 36.25 -45.859375 C 34.832031 -44.660156 32.972656 -43.988281 30.671875 -43.84375 C 29.179688 -43.75 27.691406 -43.722656 26.203125 -43.765625 C 24.710938 -43.816406 23.226562 -43.890625 21.75 -43.984375 L 19.875 -44.0625 C 18.957031 -44.113281 18.234375 -44.125 17.703125 -44.09375 C 17.179688 -44.070312 16.753906 -43.894531 16.421875 -43.5625 C 16.078125 -43.269531 15.878906 -42.859375 15.828125 -42.328125 C 15.785156 -41.804688 15.765625 -41.085938 15.765625 -40.171875 C 15.765625 -39.265625 15.765625 -38.351562 15.765625 -37.4375 C 15.765625 -36.53125 15.765625 -35.617188 15.765625 -34.703125 L 15.765625 -31.109375 L 16.703125 -31.25 C 17.234375 -31.34375 17.75 -31.4375 18.25 -31.53125 C 18.757812 -31.632812 19.273438 -31.753906 19.796875 -31.890625 C 20.898438 -32.085938 21.992188 -32.28125 23.078125 -32.46875 C 24.160156 -32.664062 25.226562 -32.8125 26.28125 -32.90625 C 28.96875 -33.144531 31.460938 -33 33.765625 -32.46875 C 35.828125 -32.039062 36.929688 -30.769531 37.078125 -28.65625 C 37.171875 -27.457031 36.90625 -26.507812 36.28125 -25.8125 C 35.664062 -25.113281 35.019531 -24.597656 34.34375 -24.265625 C 32.664062 -23.398438 31.035156 -22.894531 29.453125 -22.75 C 27.910156 -22.601562 26.332031 -22.492188 24.71875 -22.421875 C 23.113281 -22.347656 21.5 -22.265625 19.875 -22.171875 C 19.195312 -22.171875 18.507812 -22.144531 17.8125 -22.09375 C 17.125 -22.050781 16.421875 -22.03125 15.703125 -22.03125 L 14.96875 -21.953125 L 14.96875 -21.234375 C 14.96875 -20.898438 14.96875 -20.550781 14.96875 -20.1875 C 14.96875 -19.832031 14.96875 -19.488281 14.96875 -19.15625 C 14.96875 -18.144531 14.96875 -17.125 14.96875 -16.09375 C 14.96875 -15.0625 14.992188 -14.039062 15.046875 -13.03125 C 15.046875 -12.695312 15.15625 -12.394531 15.375 -12.125 C 15.59375 -11.863281 15.769531 -11.660156 15.90625 -11.515625 C 16.101562 -11.367188 16.34375 -11.210938 16.625 -11.046875 C 16.914062 -10.878906 17.226562 -10.796875 17.5625 -10.796875 C 20.25 -10.992188 23.226562 -11.351562 26.5 -11.875 C 26.925781 -11.925781 27.34375 -12.007812 27.75 -12.125 C 28.164062 -12.25 28.5625 -12.359375 28.9375 -12.453125 C 29.46875 -12.597656 29.984375 -12.726562 30.484375 -12.84375 C 30.992188 -12.96875 31.488281 -13.054688 31.96875 -13.109375 Z M 31.96875 -13.109375 "/></g></g></g><g fill="#ffffff" fill-opacity="1"><g transform="translate(488.430331, 196.130267)"><g><path d="M 56.234375 -13.109375 C 56.953125 -12.046875 57.3125 -10.914062 57.3125 -9.71875 C 57.3125 -8.519531 56.925781 -7.414062 56.15625 -6.40625 C 55.488281 -5.539062 54.722656 -4.695312 53.859375 -3.875 C 52.992188 -3.0625 52.082031 -2.441406 51.125 -2.015625 C 46.082031 0.285156 40.5625 1.628906 34.5625 2.015625 C 34.507812 3.066406 34.421875 4.144531 34.296875 5.25 C 34.179688 6.351562 34.078125 7.484375 33.984375 8.640625 C 35.953125 8.347656 37.691406 8.414062 39.203125 8.84375 C 40.710938 9.28125 41.925781 10.34375 42.84375 12.03125 C 43.800781 13.800781 44.144531 15.535156 43.875 17.234375 C 43.613281 18.941406 42.882812 20.566406 41.6875 22.109375 C 40.488281 23.691406 39.109375 24.878906 37.546875 25.671875 C 35.984375 26.460938 34.171875 26.640625 32.109375 26.203125 C 31.097656 26.015625 30.253906 25.628906 29.578125 25.046875 C 28.910156 24.472656 28.601562 23.613281 28.65625 22.46875 C 28.707031 21.363281 29.078125 20.570312 29.765625 20.09375 C 30.460938 19.613281 31.316406 19.300781 32.328125 19.15625 C 34.148438 18.8125 35.375 18.28125 36 17.5625 C 36.625 16.84375 36.9375 15.597656 36.9375 13.828125 C 36.3125 13.867188 35.707031 13.9375 35.125 14.03125 C 34.550781 14.132812 33.976562 14.234375 33.40625 14.328125 C 28.800781 15.097656 26.8125 13.203125 27.4375 8.640625 C 27.53125 7.585938 27.660156 6.53125 27.828125 5.46875 C 27.992188 4.414062 28.242188 3.382812 28.578125 2.375 C 28.628906 2.082031 28.726562 1.769531 28.875 1.4375 C 25.601562 0.863281 22.457031 -0.101562 19.4375 -1.46875 C 16.414062 -2.84375 13.632812 -4.707031 11.09375 -7.0625 C 6.957031 -10.894531 4.375 -15.222656 3.34375 -20.046875 C 2.3125 -24.867188 2.492188 -29.945312 3.890625 -35.28125 C 5.085938 -39.9375 7.085938 -44.015625 9.890625 -47.515625 C 12.703125 -51.023438 16.078125 -54.050781 20.015625 -56.59375 C 22.847656 -58.414062 25.882812 -59.578125 29.125 -60.078125 C 32.363281 -60.585938 35.519531 -60.445312 38.59375 -59.65625 C 41.664062 -58.863281 44.445312 -57.4375 46.9375 -55.375 C 47.613281 -54.84375 48.25 -54.21875 48.84375 -53.5 C 49.445312 -52.78125 49.914062 -52.007812 50.25 -51.1875 C 50.78125 -50.132812 50.898438 -49.140625 50.609375 -48.203125 C 50.328125 -47.265625 49.773438 -46.53125 48.953125 -46 C 48.140625 -45.476562 47.132812 -45.289062 45.9375 -45.4375 C 45.257812 -45.476562 44.597656 -45.59375 43.953125 -45.78125 C 43.304688 -45.976562 42.671875 -46.222656 42.046875 -46.515625 C 37.484375 -48.335938 33.328125 -48.585938 29.578125 -47.265625 C 25.835938 -45.941406 22.289062 -42.617188 18.9375 -37.296875 C 18.3125 -36.285156 17.816406 -35.179688 17.453125 -33.984375 C 17.097656 -32.785156 16.800781 -31.585938 16.5625 -30.390625 C 15.9375 -27.078125 16.414062 -24.023438 18 -21.234375 C 19.582031 -18.453125 21.863281 -16.34375 24.84375 -14.90625 C 28.394531 -13.175781 31.910156 -12.414062 35.390625 -12.625 C 38.867188 -12.84375 42.359375 -13.53125 45.859375 -14.6875 C 46.578125 -14.925781 47.296875 -15.140625 48.015625 -15.328125 C 48.742188 -15.523438 49.488281 -15.671875 50.25 -15.765625 C 51.457031 -15.910156 52.585938 -15.765625 53.640625 -15.328125 C 54.691406 -14.898438 55.554688 -14.160156 56.234375 -13.109375 Z M 56.234375 -13.109375 "/></g></g></g><g fill="#ffffff" fill-opacity="1"><g transform="translate(550.134262, 196.130267)"><g><path d="M 30.671875 -53.640625 C 33.890625 -52.867188 36.84375 -51.90625 39.53125 -50.75 C 42.21875 -49.601562 44.546875 -48.101562 46.515625 -46.25 C 48.484375 -44.40625 50.050781 -42.078125 51.21875 -39.265625 C 52.394531 -36.460938 53.109375 -33.046875 53.359375 -29.015625 C 52.773438 -22.585938 50.925781 -17.476562 47.8125 -13.6875 C 47.1875 -13.007812 46.582031 -12.320312 46 -11.625 C 45.425781 -10.925781 44.828125 -10.242188 44.203125 -9.578125 L 42.84375 -7.921875 C 38.226562 -2.546875 32.203125 -0.3125 24.765625 -1.21875 C 24.234375 -1.269531 23.703125 -1.34375 23.171875 -1.4375 C 22.648438 -1.53125 22.125 -1.628906 21.59375 -1.734375 L 21.3125 -1.796875 C 14.394531 -3.234375 9.304688 -6.832031 6.046875 -12.59375 C 4.222656 -15.769531 3.128906 -19.320312 2.765625 -23.25 C 2.410156 -27.1875 2.832031 -30.882812 4.03125 -34.34375 C 7.96875 -45.625 15.429688 -51.984375 26.421875 -53.421875 L 27.21875 -53.5625 C 27.601562 -53.613281 27.984375 -53.660156 28.359375 -53.703125 C 28.742188 -53.753906 29.128906 -53.78125 29.515625 -53.78125 C 29.953125 -53.78125 30.335938 -53.734375 30.671875 -53.640625 Z M 40.3125 -27.859375 L 40.390625 -28.078125 L 40.390625 -28.296875 C 40.054688 -30.890625 39.375 -32.894531 38.34375 -34.3125 C 37.3125 -35.726562 35.664062 -36.890625 33.40625 -37.796875 C 31.34375 -38.660156 29.546875 -39.476562 28.015625 -40.25 C 25.941406 -41.300781 24.160156 -41.644531 22.671875 -41.28125 C 21.191406 -40.925781 19.800781 -39.8125 18.5 -37.9375 C 14.664062 -32.132812 13.734375 -26.5 15.703125 -21.03125 C 16.367188 -19.195312 17.429688 -17.65625 18.890625 -16.40625 C 20.359375 -15.164062 22.050781 -14.351562 23.96875 -13.96875 C 24.644531 -13.820312 25.34375 -13.75 26.0625 -13.75 C 29.132812 -13.75 31.679688 -14.898438 33.703125 -17.203125 C 33.890625 -17.398438 34.066406 -17.582031 34.234375 -17.75 C 34.398438 -17.914062 34.554688 -18.070312 34.703125 -18.21875 C 35.140625 -18.695312 35.5625 -19.160156 35.96875 -19.609375 C 36.375 -20.066406 36.742188 -20.5625 37.078125 -21.09375 C 37.515625 -21.863281 37.921875 -22.644531 38.296875 -23.4375 C 38.679688 -24.226562 39.046875 -25.03125 39.390625 -25.84375 C 39.523438 -26.1875 39.664062 -26.523438 39.8125 -26.859375 C 39.957031 -27.191406 40.125 -27.523438 40.3125 -27.859375 Z M 40.3125 -27.859375 "/></g></g></g><g mask="url(#eb15109193)"><g transform="matrix(1, 0, 0, 1, 334, 8)"><g clip-path="url(#fc6e0c09f2)"><g clip-path="url(#416873eb3c)"><path fill="#ffffff" d="M 37.910156 47.5625 C 35.984375 43.125 33.121094 34.484375 35.933594 25.257812 C 40.546875 10.125 58.660156 -0.726562 80.453125 0.679688 C 83.347656 19.140625 76.214844 36.441406 62.777344 44.15625 C 53.726562 49.355469 44.347656 48.75 39.90625 48.132812 C 44.453125 44.683594 49.558594 40.257812 54.660156 34.648438 C 62.535156 25.996094 67.792969 17.410156 71.273438 10.558594 C 66.273438 17.53125 60.265625 25.0625 53.089844 32.757812 C 47.914062 38.3125 42.796875 43.230469 37.910156 47.5625 Z M 37.910156 47.5625 " fill-opacity="1" fill-rule="nonzero"/></g><g clip-path="url(#154e3c30f1)"><path fill="#ffffff" d="M 32.101562 48.042969 C 28.699219 49.070312 22.152344 50.425781 15.664062 47.585938 C 5.015625 42.929688 -1.355469 28.792969 1.527344 13.015625 C 15.242188 12.476562 27.253906 19.152344 31.738281 29.613281 C 34.757812 36.660156 33.515625 43.449219 32.6875 46.636719 C 30.558594 43.027344 27.765625 38.925781 24.109375 34.726562 C 18.46875 28.242188 12.652344 23.675781 7.953125 20.554688 C 12.613281 24.792969 17.59375 29.816406 22.597656 35.710938 C 26.207031 39.960938 29.355469 44.109375 32.101562 48.042969 Z M 32.101562 48.042969 " fill-opacity="1" fill-rule="nonzero"/></g></g></g></g></svg>